<svg id="svg" xmlns="http://www.w3.org/2000/svg" xmlns:xlink="http://www.w3.org/1999/xlink" width="400" height="254.1176470588235" viewBox="0, 0, 400,254.1176470588235"><g id="svgg"><path id="path0" d="M27.529 26.976 C 26.204 27.511,25.735 229.625,27.059 229.673 C 28.422 229.722,64.484 229.744,65.647 229.696 C 66.577 229.657,66.824 214.759,66.824 158.476 L 66.824 87.305 79.294 104.465 C 86.153 113.903,94.729 125.734,98.353 130.756 C 127.679 171.400,128.360 172.235,132.215 172.235 C 136.811 172.235,136.358 172.777,175.015 120.941 C 194.703 94.541,218.040 63.276,226.874 51.463 C 236.047 39.198,242.805 29.308,242.631 28.405 C 242.356 26.980,240.021 26.808,219.004 26.668 L 195.683 26.512 192.194 31.096 C 187.938 36.688,186.774 38.290,163.853 70.118 C 153.788 84.094,143.029 99.034,139.944 103.317 C 136.859 107.600,134.074 111.265,133.755 111.463 C 133.214 111.797,129.683 107.044,103.480 70.712 C 98.017 63.138,90.000 52.071,85.663 46.118 C 81.326 40.165,76.584 33.540,75.126 31.395 C 73.667 29.251,71.803 27.239,70.984 26.925 C 69.209 26.244,29.228 26.291,27.529 26.976 M276.640 27.155 C 275.118 27.669,250.109 61.276,249.989 62.968 C 249.894 64.312,253.664 64.520,285.647 64.941 L 321.412 65.412 326.608 67.964 C 351.960 80.415,351.949 117.850,326.588 130.578 L 321.412 133.176 261.176 133.647 L 200.941 134.118 200.941 181.647 L 200.941 229.176 220.235 229.176 L 239.529 229.176 239.778 199.826 L 240.027 170.475 282.131 170.102 C 322.205 169.747,324.593 169.628,331.662 167.632 C 363.091 158.758,381.511 135.461,382.805 102.949 C 384.298 65.406,365.756 39.251,330.353 28.963 C 327.267 28.066,278.774 26.434,276.640 27.155 M77.012 36.941 C 80.565 41.729,90.496 55.388,99.082 67.294 C 128.615 108.245,132.809 113.784,133.936 113.323 C 134.554 113.070,137.838 108.963,141.236 104.197 C 147.841 94.928,175.752 56.243,182.299 47.283 C 184.469 44.313,188.202 39.058,190.594 35.607 C 195.991 27.821,193.225 28.526,219.177 28.319 C 239.160 28.159,241.124 28.283,240.590 29.675 C 240.041 31.106,218.953 59.622,197.246 88.285 C 192.031 95.171,186.918 102.015,185.882 103.493 C 182.833 107.846,159.526 139.078,152.844 147.765 C 149.459 152.165,144.977 158.249,142.883 161.286 C 134.694 173.161,131.448 173.642,124.584 164.000 C 122.097 160.506,115.088 150.871,109.008 142.588 C 102.929 134.306,96.260 125.200,94.190 122.353 C 92.119 119.506,85.499 110.438,79.478 102.203 C 73.457 93.967,68.307 86.643,68.032 85.928 C 65.752 79.987,65.393 88.236,64.941 156.784 L 64.471 228.235 46.353 228.491 L 28.235 228.747 28.235 128.491 L 28.235 28.235 49.394 28.235 L 70.553 28.235 77.012 36.941 M334.118 32.154 C 342.138 34.856,346.481 36.950,350.677 40.139 C 352.279 41.357,353.973 42.360,354.442 42.369 C 355.434 42.387,362.695 49.188,366.118 53.304 C 369.313 57.146,370.298 58.771,373.745 65.882 C 375.375 69.247,377.159 72.847,377.707 73.882 C 381.595 81.218,382.853 104.741,379.947 115.765 C 378.233 122.269,378.123 122.561,374.127 131.294 C 371.062 137.993,358.529 153.412,356.149 153.412 C 355.580 153.412,354.362 154.245,353.440 155.263 C 351.040 157.914,339.609 163.219,330.824 165.758 C 323.595 167.847,321.604 167.954,280.941 168.438 L 238.588 168.941 238.340 198.353 L 238.091 227.765 220.400 227.765 L 202.710 227.765 202.557 181.647 L 202.404 135.529 261.118 135.529 C 328.365 135.529,325.362 135.878,335.436 126.899 C 343.947 119.314,346.815 112.336,346.820 99.203 C 346.822 92.905,346.405 88.235,345.770 87.439 C 345.190 86.712,344.209 84.544,343.590 82.621 C 341.420 75.882,329.227 64.941,323.888 64.941 C 322.846 64.941,321.732 64.518,321.412 64.000 C 321.041 63.400,308.216 63.059,286.034 63.059 L 251.238 63.059 253.384 60.000 C 254.564 58.318,255.762 56.729,256.047 56.471 C 256.331 56.212,260.512 50.706,265.337 44.235 C 270.162 37.765,274.792 31.695,275.624 30.746 C 278.246 27.759,324.368 28.869,334.118 32.154 " stroke="none" fill="#000000" fill-rule="evenodd"></path></g></svg>